<svg width="247" height="247" viewBox="0 0 247 247" fill="none" xmlns="http://www.w3.org/2000/svg">
<path d="M162.136 97.0083H151.699V110.237C151.699 111.501 151.122 114.936 148.811 118.563C146.5 122.189 144.431 123.735 139.772 124.298H117.594C113.742 124.082 105.182 124.28 101.752 126.796C98.3232 129.312 97.1553 133.456 97 135.214V162.689C97 164.909 98.025 167.222 103.802 170.922C109.58 174.623 111.257 174.808 123.278 174.993C135.299 175.178 142.101 171.847 144.897 169.442C147.133 167.518 147.63 165.618 147.599 164.909V151.403H122.253V147.148C133.994 147.179 154.066 147.222 156.824 147.148C160.272 147.055 164.186 147.148 168.1 144.372C171.231 142.152 173.256 137.342 173.877 135.214C174.902 129.787 176.151 116.694 172.945 107.739C169.74 98.7845 164.403 96.8541 162.136 97.0083Z" stroke="#FED142"/>
<circle cx="133.5" cy="162.5" r="4.5" fill="white"/>
<path d="M151.764 76.5596C151.243 77.6788 148.071 79.886 146.551 80.8497C146.458 80.8497 146.439 80.7005 147.109 80.1036C147.947 79.3575 148.413 76.1865 148.413 74.8808C148.413 73.5751 147.668 71.6166 146.271 69.658C144.875 67.6995 142.175 67.886 140.499 68.4456C138.824 69.0052 138.265 70.3109 138.731 70.2176C139.196 70.1244 140.779 69.9378 142.454 70.4974C143.795 70.9451 144.937 72.487 145.34 73.2021C145.03 73.2021 144.167 73.2767 143.199 73.5751C141.989 73.9482 142.641 74.5078 141.058 75.3472C139.792 76.0187 138.11 76.0622 137.427 76C138.048 76.5596 139.531 77.9399 140.499 78.9845C141.71 80.2902 143.665 82.4352 144.782 84.2073C145.899 85.9793 147.482 89.4301 149.437 95.4922C151.392 101.554 149.064 109.202 147.482 112.839C145.899 116.477 143.199 120.021 142.268 120.021C141.524 120.021 141.213 120.953 141.151 121.42L140.313 123.192L138.544 122.725C138.544 121.824 138.153 120.412 136.589 121.979C136.142 122.8 135.969 123.689 135.938 124.031C135.596 124.56 134.802 125.747 134.355 126.269C133.796 126.922 131.562 124.87 130.445 124.031C129.551 123.36 129.328 121.078 129.328 120.021H112.105C110.46 121.358 106.761 124.199 105.122 124.87C103.074 125.71 102.609 125.803 99.3504 126.829C96.0921 127.855 96.6506 127.109 95.8127 128.321C95.1424 129.291 94.6645 131.648 94.5093 132.705L93.8576 148C89.6062 147.969 80.5075 147.478 78.1242 145.762C75.1451 143.617 72.5384 136.715 71.1419 131.026C69.7455 125.337 69.0007 116.57 72.7246 107.15C75.7037 99.6145 82.0343 97.0466 84.8272 96.7047H105.402C106.084 96.5181 107.841 96.0145 109.405 95.4922C111.36 94.8394 113.222 95.1192 116.201 95.1192C118.584 95.1192 121.973 96.0518 123.37 96.5181C121.383 96.5492 116.462 96.7233 112.663 97.171C107.915 97.7306 106.24 98.4767 105.122 98.943C104.005 99.4093 101.678 101.368 99.3504 103.14C97.023 104.912 98.0471 104.539 95.4403 105.098C93.3549 105.546 92.3434 104.259 91.3193 104.446C92.1572 104.819 94.3604 105.527 93.0198 105.751C91.3441 106.031 91.5055 105.751 90.7607 104.632C89.993 103.479 89.4573 102.86 90.109 104.539C90.7607 106.218 90.4814 105.938 91.8779 106.777C93.2743 107.617 93.8577 106.777 95.1611 106.591C96.4644 106.404 95.6266 106.218 96.6506 106.218C97.6747 106.218 98.0471 106.777 99.6297 108.549C101.212 110.321 100.561 111.161 98.0471 117.316C96.0362 122.24 93.5474 123.845 92.5543 124.031C94.168 123.845 98.0285 123.416 100.561 123.192C103.726 122.912 105.867 121.42 108.474 120.021C110.559 118.902 112.136 116.881 112.663 116.01C112.229 115.606 111.155 114.313 110.336 112.373C109.312 109.948 109.219 100.528 109.777 105.751C110.336 110.974 115.736 113.399 119.925 114.798C124.114 116.197 122.718 115.358 124.859 116.01C127 116.663 126.442 116.01 126.349 115.358C126.256 114.705 125.045 112.466 124.859 110.974C124.673 109.482 124.487 108.456 124.487 106.218C124.487 103.979 128.397 100.715 127.28 102.487C126.162 104.259 126.814 104.632 127.652 109.855C128.49 115.078 129.793 115.264 130.445 117.316C131.097 119.368 131.469 120.86 132.121 122.725C132.772 124.591 133.238 123.751 134.355 122.725C135.472 121.699 134.541 120.674 134.914 118.622C135.286 116.57 136.962 113.212 138.544 111.161C140.127 109.109 141.151 108.083 141.617 106.497C142.082 104.912 141.989 103.979 142.268 107.523C142.548 111.067 140.127 114.984 141.151 114.332C142.175 113.679 143.292 111.907 145.247 108.083C147.202 104.259 147.016 99.2228 147.016 98.0104C147.016 96.7979 146.923 96.0518 146.83 94.3731C146.737 92.6943 145.434 89.9896 144.596 88.2176C143.758 86.4456 141.151 82.2487 140.127 81.2228C139.103 80.1969 137.055 77.1192 136.682 76.3731C136.372 75.7511 135.932 74.8051 135.794 74.5615C135.767 74.5368 135.752 74.5182 135.752 74.5078C135.752 74.4923 135.767 74.5129 135.794 74.5615C136.016 74.7584 137.045 75.3472 137.707 75.3472C138.451 75.3472 138.638 75.2539 139.289 75.0674C139.941 74.8808 141.058 74.601 141.617 73.5751C142.064 72.7544 142.858 72.6736 143.199 72.7358C143.168 72.7358 143.05 72.6425 142.827 72.2694C142.548 71.8031 141.617 71.6166 139.848 71.6166C138.079 71.6166 137.148 71.9896 136.31 72.0829C135.472 72.1762 135.1 71.5233 134.727 70.7772C134.355 70.0311 134.821 69.8446 134.727 69.1917C134.634 68.5389 135.1 67.6062 135.1 66.7668V63.9689C135.1 63.2924 135.644 62.3734 135.807 62.0912C135.812 62.0579 135.823 62.0317 135.845 62.0104C135.863 61.9923 135.846 62.0233 135.807 62.0912C135.789 62.2036 135.845 62.3968 135.845 62.7565C135.845 63.2228 136.217 63.3161 136.682 63.9689L137.148 64.6218C137.21 64.5907 137.334 64.5098 137.334 64.4352C137.334 64.342 137.427 64.1554 137.427 63.6891C137.427 63.2228 137.52 63.4093 137.707 62.5699C137.893 61.7306 138.917 60.7979 138.731 61.3575C138.544 61.9171 139.01 61.9171 139.289 62.4767C139.513 62.9244 139.755 63.2228 139.848 63.3161H140.313V63.1295C140.344 62.9741 140.444 62.5513 140.593 62.1036C140.742 61.656 141.275 61.2953 141.524 61.171L142.548 62.5699C142.579 62.7876 142.715 63.1855 143.013 63.0363C143.385 62.8497 143.385 62.4767 143.758 61.8238C144.056 61.3016 144.503 61.2953 144.689 61.3575V63.9689L145.061 63.7824C145.092 63.7513 145.229 63.5772 145.527 63.1295C145.825 62.6819 146.396 62.5699 146.644 62.5699V65.1813C146.861 65.399 147.463 66.058 148.133 66.9534C148.971 68.0725 149.064 68.9119 149.53 71.057C149.902 72.7731 149.623 75.0674 149.437 76L149.716 75.0674C149.902 74.3834 150.312 72.6238 150.461 71.057C150.647 69.0984 150.647 66.6736 149.437 64.4352C148.227 62.1969 146.737 61.2642 144.41 60.2383C142.089 59.2153 140.508 59.4907 138.376 59.8621L138.358 59.8653C136.217 60.2383 135.193 61.4508 133.61 63.0363C132.344 64.3047 132.4 66.0518 132.586 66.7668C132.338 66.9223 131.525 67.4197 130.259 68.1658C128.676 69.0984 127.652 70.0311 126.535 71.057C125.418 72.0829 123.649 74.0415 122.718 75.2539C121.973 76.2238 121.104 78.1451 120.763 78.9845C120.701 79.171 120.539 79.6373 120.39 80.0104C120.204 80.4767 120.204 80.4767 119.925 81.0363C119.646 81.5959 119.925 81.5026 120.763 80.4767C121.601 79.4508 121.88 78.9845 121.601 79.544C121.321 80.1036 121.973 80.4767 122.066 80.8497C122.159 81.2228 122.532 81.4093 122.066 81.5959C121.601 81.7824 121.321 81.5959 120.67 82.0622C120.148 82.4352 120.328 82.5285 120.484 82.5285L122.159 83.9275H124.114C125.232 83.9275 124.673 83.8342 124.301 82.9016C123.742 82.342 123.928 81.3161 123.928 81.6891C123.928 82.0622 124.394 82.342 124.859 82.715C125.325 83.0881 125.976 82.9948 127.652 82.9016C129.328 82.8083 128.955 82.4352 131.469 80.8497C133.48 79.5813 134.665 76.9016 135.007 75.7202C134.945 76 134.858 77.0446 135.007 78.9845C135.193 81.4093 133.238 80.8497 133.238 82.4352C133.238 84.0207 133.331 89.2435 132.121 90.7358C130.91 92.228 128.397 93.1606 128.955 92.4145C129.514 91.6684 130.445 90.1762 130.445 87.7513C130.445 85.8114 129.452 84.8912 128.955 84.6736C128.335 84.487 126.814 84.2259 125.697 84.6736C124.58 85.1212 123.432 85.4197 122.997 85.513C122.594 85.5751 121.526 85.3824 120.484 84.114C119.441 82.8456 118.125 82.4663 117.598 82.4352C118.497 80.2591 120.837 75.1979 122.997 72.3627C125.157 69.5275 128.862 66.829 130.445 65.8342C130.476 65.3368 130.724 64.0808 131.469 63.0363C132.4 61.7306 134.541 58 140.406 58C146.272 58 149.344 61.2642 151.764 64.9948C154.185 68.7254 152.416 75.1606 151.764 76.5596Z" fill="black"/>
<path d="M126.871 74.5C126.484 74.9 126.129 75.6667 126 76C126.061 75.8611 126.397 75.45 127.258 74.9167C128.334 74.25 129.484 74.3333 130.742 73.9167C131.748 73.5833 132 73.1667 132 73H128.806C128.323 73.3333 127.258 74.1 126.871 74.5Z" fill="black"/>
<path d="M151.478 97H163.059C165.745 97.34 171.638 100.653 173.713 111.185C176.307 124.351 174.269 134.457 173.713 136.126C173.157 137.795 171.397 141.503 168.71 143.821C166.023 146.139 163.522 146.881 161.02 147.066C159.019 147.215 134.43 147.375 122.386 147.437V151.331H147.401V153.464L144.807 153.093H143.047L142.213 153.742H141.194H140.082C139.866 153.834 139.47 154.094 139.618 154.391C139.767 154.687 139.989 155.874 140.082 156.43L138.507 154.391C138.26 154.174 137.71 153.742 137.488 153.742C137.21 153.742 136.19 153.093 136.098 153.093C136.005 153.093 135.82 154.576 135.079 154.669C134.338 154.762 133.04 154.669 132.207 155.132C131.373 155.596 131.095 155.596 129.89 156.43C128.686 157.265 128.315 156.894 127.481 158.47C126.648 160.046 126.37 160.974 126.555 161.252C126.74 161.53 125.351 160.417 125.536 159.583C125.721 158.748 124.795 159.212 125.536 158.099C126.277 156.987 126.648 157.728 127.296 156.338C126.555 154.02 126.648 153.834 126.092 154.391C125.536 154.947 126.277 156.338 124.609 156.338C122.942 156.338 122.201 156.06 122.015 155.596C121.83 155.132 124.239 154.576 124.239 154.02C124.239 153.464 126.926 153.185 124.239 152.722C121.552 152.258 121.274 152.629 121.181 151.98C121.089 151.331 120.903 151.517 121.181 150.96C121.459 150.404 121.922 149.94 121.737 149.477L121.737 149.476C121.552 149.013 121.552 149.013 121.181 148.55C120.885 148.179 120.44 146.974 120.255 146.417C120.749 145.954 121.737 144.952 121.737 144.656C121.737 144.285 123.498 144.007 121.737 142.523C119.977 141.04 120.347 143.265 119.05 140.113C117.753 136.96 118.309 134.642 119.05 134.086C119.792 133.53 120.255 133.437 120.255 131.861C120.255 131.084 120.138 130.573 120.012 130.265C119.935 130.137 119.861 130.019 119.792 129.914C119.851 129.961 119.933 130.074 120.012 130.265C120.791 131.566 121.856 133.941 121.181 135.291C121.737 139.185 121.83 139.556 123.22 139.464C124.609 139.371 125.628 138.258 126.092 139.185C126.555 140.113 128.778 136.96 128.13 140.391C127.463 143.803 128.717 145.088 129.427 145.305C130.106 145.274 131.929 145.156 133.782 144.934C136.098 144.656 140.36 145.027 137.488 142.987C134.615 140.947 134.986 142.709 133.782 140.391C132.577 138.073 130.632 136.497 132.207 136.126C133.782 135.755 135.542 137.609 136.283 135.848C136.876 134.438 137.333 133.777 137.488 133.623C137.92 133.375 138.655 133.363 138.136 135.291C137.488 137.702 137.488 137.98 137.488 138.351C137.488 138.722 135.357 139.834 137.488 140.113C139.618 140.391 141.472 141.781 141.194 142.523C140.971 143.117 140.668 143.636 140.545 143.821C141.163 143.976 142.528 144.285 143.047 144.285H148.142C148.76 144.872 150.069 145.824 150.366 144.934C150.736 143.821 155.091 142.894 150.736 141.503C148.142 139.185 149.995 138.351 150.366 138.351C150.736 138.351 149.902 137.238 151.385 137.795C152.867 138.351 153.701 137.238 154.072 138.351C154.442 139.464 153.33 139.278 154.998 140.391C156.666 141.503 157.5 141.596 157.407 142.06C157.314 142.523 155.739 142.152 157.407 142.987C159.075 143.821 159.075 142.987 159.538 142.987C160.001 142.987 160.186 144.656 161.947 143.821C163.707 142.987 164.17 142.616 164.448 142.06C164.726 141.503 168.71 133.901 168.71 133.623C168.71 133.344 168.432 131.861 167.135 131.861C165.838 131.861 164.448 131.027 164.448 132.325C164.448 133.623 161.02 135.199 162.317 133.066C163.355 131.36 164.17 130.625 164.448 130.47C164.479 129.852 164.597 128.486 164.819 127.967C165.097 127.318 166.857 127.04 167.506 127.503C168.154 127.967 167.506 128.801 168.71 128.987C169.915 129.172 170.285 128.523 170.285 127.503V125.649C170.285 125.185 166.116 116.748 162.317 118.232C158.519 119.715 157.407 121.477 156.481 119.344C154.035 117.268 152.497 118.479 152.033 119.344C152.033 119.499 151.811 119.956 150.922 120.55C149.81 121.291 151.848 128.245 152.96 127.503C154.072 126.762 157.778 126.298 154.72 127.874C151.663 129.45 151.755 127.967 149.532 129.45C145.548 131.861 141.749 132.417 144.344 129.45C146.938 126.483 147.401 126.762 147.586 126.483C147.772 126.205 150.644 124.722 148.142 124.815C145.641 124.907 146.382 124.351 144.714 124.815C143.38 125.185 141.008 125.773 139.989 126.02L136.654 129.914L133.782 130.47L132.762 128.709C132.546 128.647 132.04 128.319 131.743 127.503C131.373 126.483 131.465 126.391 130.724 126.02C129.983 125.649 124.702 125.185 123.22 125.371C121.737 125.556 122.571 125 120.533 125.742C118.495 126.483 111.361 125.464 110.341 125.742C109.322 126.02 107.099 125.185 106.728 126.947C106.358 128.709 105.987 126.391 107.562 130.47C106.728 137.146 108.396 138.815 105.709 137.053C103.022 135.291 103.578 134.086 102.374 134.457C101.169 134.828 100.891 134.642 100.891 135.848C100.891 137.053 101.262 137.146 101.077 138.166C100.891 139.185 102.466 139.185 101.077 140.113C100.039 141.744 99.6559 143.265 99.5941 143.821C99.3779 143.945 98.9641 144.415 99.0382 145.305C99.1309 146.417 98.9456 146.417 99.0382 147.808C99.1309 149.199 98.6676 156.43 99.5941 158.841C100.521 161.252 103.485 157.914 105.338 159.583C107.191 161.252 107.655 161.53 107.191 162.086C106.728 162.642 106.358 163.384 105.338 163.013C103.671 163.477 102.837 163.57 103.763 164.775C104.69 165.98 105.431 165.887 105.709 165.98C105.987 166.073 107.562 164.497 106.635 165.98C105.709 167.464 106.172 167.464 104.968 167.464C104.041 168.576 104.412 168.669 104.69 168.947C104.912 169.17 105.647 170.894 105.987 171.728C106.254 172.196 107.079 173.068 108.572 173.713C109.122 173.916 109.666 174.089 110.197 174.238C110.334 174.269 110.475 174.298 110.619 174.325C113.436 174.844 115.499 174.974 116.178 174.974C114.907 175.067 112.695 174.935 110.197 174.238C109.586 174.099 109.045 173.917 108.572 173.713C106.553 172.969 104.445 171.836 102.559 170.152C96.5368 164.775 97.0927 164.589 97.0927 162.086C97.0927 160.083 97.0309 150.991 97 146.695L97.1853 134.735C97.2471 133.313 97.9265 130.025 100.15 128.245C102.93 126.02 103.578 125.278 110.341 124.815C115.752 124.444 125.134 124.351 129.149 124.351H129.612C129.921 124.567 130.706 125.148 131.373 125.742C132.207 126.483 133.689 127.781 134.152 127.503C134.615 127.225 135.264 126.298 135.542 125.742C135.764 125.297 136.129 124.629 136.283 124.351H139.989C141.379 124.227 144.788 123.257 147.308 120.364C150.458 116.748 150.922 113.874 151.2 112.576C151.422 111.538 151.478 108.559 151.478 107.199L151.478 97Z" fill="black"/>
<path d="M151.478 97H163.059C165.745 97.34 171.638 100.653 173.713 111.185C176.307 124.351 174.269 134.457 173.713 136.126C173.157 137.795 171.397 141.503 168.71 143.821C166.023 146.139 163.522 146.881 161.02 147.066C159.019 147.215 134.43 147.375 122.386 147.437V151.331H147.401V153.464L144.807 153.093H143.047L142.213 153.742H141.194H140.082C139.866 153.834 139.47 154.094 139.618 154.391C139.767 154.687 139.989 155.874 140.082 156.43L138.507 154.391C138.26 154.174 137.71 153.742 137.488 153.742C137.21 153.742 136.19 153.093 136.098 153.093C136.005 153.093 135.82 154.576 135.079 154.669C134.338 154.762 133.04 154.669 132.207 155.132C131.373 155.596 131.095 155.596 129.89 156.43C128.686 157.265 128.315 156.894 127.481 158.47C126.648 160.046 126.37 160.974 126.555 161.252C126.74 161.53 125.351 160.417 125.536 159.583C125.721 158.748 124.795 159.212 125.536 158.099C126.277 156.987 126.648 157.728 127.296 156.338C126.555 154.02 126.648 153.834 126.092 154.391C125.536 154.947 126.277 156.338 124.609 156.338C122.942 156.338 122.201 156.06 122.015 155.596C121.83 155.132 124.239 154.576 124.239 154.02C124.239 153.464 126.926 153.185 124.239 152.722C121.552 152.258 121.274 152.629 121.181 151.98C121.089 151.331 120.903 151.517 121.181 150.96C121.459 150.404 121.922 149.94 121.737 149.477C121.552 149.013 121.552 149.013 121.181 148.55C120.885 148.179 120.44 146.974 120.255 146.417C120.749 145.954 121.737 144.952 121.737 144.656C121.737 144.285 123.498 144.007 121.737 142.523C119.977 141.04 120.347 143.265 119.05 140.113C117.753 136.96 118.309 134.642 119.05 134.086C119.792 133.53 120.255 133.437 120.255 131.861C120.255 130.6 119.946 130.038 119.792 129.914C120.564 131.088 121.923 133.808 121.181 135.291C121.737 139.185 121.83 139.556 123.22 139.464C124.609 139.371 125.628 138.258 126.092 139.185C126.555 140.113 128.778 136.96 128.13 140.391C127.463 143.803 128.717 145.088 129.427 145.305C130.106 145.274 131.929 145.156 133.782 144.934C136.098 144.656 140.36 145.027 137.488 142.987C134.615 140.947 134.986 142.709 133.782 140.391C132.577 138.073 130.632 136.497 132.207 136.126C133.782 135.755 135.542 137.609 136.283 135.848C136.876 134.438 137.333 133.777 137.488 133.623C137.92 133.375 138.655 133.363 138.136 135.291C137.488 137.702 137.488 137.98 137.488 138.351C137.488 138.722 135.357 139.834 137.488 140.113C139.618 140.391 141.472 141.781 141.194 142.523C140.971 143.117 140.668 143.636 140.545 143.821C141.163 143.976 142.528 144.285 143.047 144.285C143.565 144.285 146.66 144.285 148.142 144.285C148.76 144.872 150.069 145.824 150.366 144.934C150.736 143.821 155.091 142.894 150.736 141.503C148.142 139.185 149.995 138.351 150.366 138.351C150.736 138.351 149.902 137.238 151.385 137.795C152.867 138.351 153.701 137.238 154.072 138.351C154.442 139.464 153.33 139.278 154.998 140.391C156.666 141.503 157.5 141.596 157.407 142.06C157.314 142.523 155.739 142.152 157.407 142.987C159.075 143.821 159.075 142.987 159.538 142.987C160.001 142.987 160.186 144.656 161.947 143.821C163.707 142.987 164.17 142.616 164.448 142.06C164.726 141.503 168.71 133.901 168.71 133.623C168.71 133.344 168.432 131.861 167.135 131.861C165.838 131.861 164.448 131.026 164.448 132.325C164.448 133.623 161.02 135.199 162.317 133.066C163.355 131.36 164.17 130.625 164.448 130.47C164.479 129.852 164.597 128.486 164.819 127.967C165.097 127.318 166.857 127.04 167.506 127.503C168.154 127.967 167.506 128.801 168.71 128.987C169.915 129.172 170.285 128.523 170.285 127.503C170.285 126.483 170.285 126.113 170.285 125.649C170.285 125.185 166.116 116.748 162.317 118.232C158.519 119.715 157.407 121.477 156.481 119.344C154.035 117.268 152.497 118.479 152.033 119.344C152.033 119.499 151.811 119.956 150.922 120.55C149.81 121.291 151.848 128.245 152.96 127.503C154.072 126.762 157.778 126.298 154.72 127.874C151.663 129.45 151.755 127.967 149.532 129.45C145.548 131.861 141.749 132.417 144.344 129.45C146.938 126.483 147.401 126.762 147.586 126.483C147.772 126.205 150.644 124.722 148.142 124.815C145.641 124.907 146.382 124.351 144.714 124.815C143.38 125.185 141.008 125.773 139.989 126.02L136.654 129.914L133.782 130.47L132.762 128.709C132.546 128.647 132.04 128.319 131.743 127.503C131.373 126.483 131.465 126.391 130.724 126.02C129.983 125.649 124.702 125.185 123.22 125.371C121.737 125.556 122.571 125 120.533 125.742C118.495 126.483 111.361 125.464 110.341 125.742C109.322 126.02 107.099 125.185 106.728 126.947C106.358 128.709 105.987 126.391 107.562 130.47C106.728 137.146 108.396 138.815 105.709 137.053C103.022 135.291 103.578 134.086 102.374 134.457C101.169 134.828 100.891 134.642 100.891 135.848C100.891 137.053 101.262 137.146 101.077 138.166C100.891 139.185 102.466 139.185 101.077 140.113C100.039 141.744 99.6559 143.265 99.5941 143.821C99.3779 143.945 98.9641 144.415 99.0382 145.305C99.1309 146.417 98.9456 146.417 99.0382 147.808C99.1309 149.199 98.6676 156.43 99.5941 158.841C100.521 161.252 103.485 157.914 105.338 159.583C107.191 161.252 107.655 161.53 107.191 162.086C106.728 162.642 106.358 163.384 105.338 163.013C103.671 163.477 102.837 163.57 103.763 164.775C104.69 165.98 105.431 165.887 105.709 165.98C105.987 166.073 107.562 164.497 106.635 165.98C105.709 167.464 106.172 167.464 104.968 167.464C104.041 168.576 104.412 168.669 104.69 168.947C104.912 169.17 105.647 170.894 105.987 171.728C106.358 172.378 107.803 173.805 110.619 174.325C113.436 174.844 115.499 174.974 116.178 174.974C113.646 175.159 107.377 174.454 102.559 170.152C96.5368 164.775 97.0927 164.589 97.0927 162.086C97.0927 160.083 97.0309 150.991 97 146.695L97.1853 134.735C97.2471 133.313 97.9265 130.025 100.15 128.245C102.93 126.02 103.578 125.278 110.341 124.815C115.752 124.444 125.134 124.351 129.149 124.351H129.612C129.921 124.567 130.706 125.148 131.373 125.742C132.207 126.483 133.689 127.781 134.152 127.503C134.615 127.225 135.264 126.298 135.542 125.742C135.764 125.297 136.129 124.629 136.283 124.351H139.989C141.379 124.227 144.788 123.257 147.308 120.364C150.458 116.748 150.922 113.874 151.2 112.576C151.422 111.538 151.478 108.559 151.478 107.199L151.478 97Z" stroke="black"/>
<path d="M132 162.408L133.3 158L135 162.408L133.7 167L132 162.408Z" fill="black"/>
<circle cx="123.759" cy="123.241" r="85.3583" transform="rotate(37.6917 123.759 123.241)" stroke="black" stroke-width="5"/>
<mask id="path-9-inside-1_23_207" fill="white">
<path d="M193.282 176.959C186.228 186.088 177.444 193.74 167.433 199.475C157.422 205.21 146.379 208.918 134.935 210.385L132.097 188.255C140.635 187.16 148.873 184.394 156.342 180.115C163.811 175.836 170.363 170.128 175.626 163.317L193.282 176.959Z"/>
</mask>
<path d="M193.282 176.959C186.228 186.088 177.444 193.74 167.433 199.475C157.422 205.21 146.379 208.918 134.935 210.385L132.097 188.255C140.635 187.16 148.873 184.394 156.342 180.115C163.811 175.836 170.363 170.128 175.626 163.317L193.282 176.959Z" stroke="black" stroke-width="10" mask="url(#path-9-inside-1_23_207)"/>
<mask id="path-10-inside-2_23_207" fill="white">
<path d="M70.0413 192.764C51.6025 178.518 39.5785 157.53 36.6144 134.417L58.7453 131.579C60.9567 148.822 69.9271 164.48 83.6832 175.108L70.0413 192.764Z"/>
</mask>
<path d="M70.0413 192.764C51.6025 178.518 39.5785 157.53 36.6144 134.417L58.7453 131.579C60.9567 148.822 69.9271 164.48 83.6832 175.108L70.0413 192.764Z" stroke="black" stroke-width="10" mask="url(#path-10-inside-2_23_207)"/>
<mask id="path-11-inside-3_23_207" fill="white">
<path d="M54.2355 69.5233C68.4823 51.0846 89.4703 39.0606 112.582 36.0964L115.421 58.2274C98.1781 60.4388 82.5202 69.4092 71.8915 83.1653L54.2355 69.5233Z"/>
</mask>
<path d="M54.2355 69.5233C68.4823 51.0846 89.4703 39.0606 112.582 36.0964L115.421 58.2274C98.1781 60.4388 82.5202 69.4092 71.8915 83.1653L54.2355 69.5233Z" stroke="black" stroke-width="10" mask="url(#path-11-inside-3_23_207)"/>
<mask id="path-12-inside-4_23_207" fill="white">
<path d="M177.476 53.7176C195.915 67.9644 207.939 88.9524 210.903 112.065L188.772 114.903C186.561 97.6602 177.591 82.0023 163.835 71.3735L177.476 53.7176Z"/>
</mask>
<path d="M177.476 53.7176C195.915 67.9644 207.939 88.9524 210.903 112.065L188.772 114.903C186.561 97.6602 177.591 82.0023 163.835 71.3735L177.476 53.7176Z" stroke="black" stroke-width="10" mask="url(#path-12-inside-4_23_207)"/>
</svg>
