<svg width="122" height="123" viewBox="0 0 122 123" fill="none" xmlns="http://www.w3.org/2000/svg">
<path d="M80.568 49.0039H75.3497V55.2791C75.3497 55.8788 75.0608 57.5083 73.9053 59.2285C72.7498 60.9486 71.7155 61.6819 69.3859 61.9491H58.2969C56.3711 61.8468 52.0908 61.9404 50.3762 63.134C48.6616 64.3275 48.0777 66.2935 48 67.1272V80.1602C48 81.2134 48.5125 82.3104 51.4012 84.0657C54.29 85.821 55.1286 85.9087 61.139 85.9965C67.1494 86.0843 70.5507 84.5045 71.9484 83.3636C73.0666 82.4508 73.3151 81.5498 73.2996 81.2134V74.8066H60.6265V72.788C66.4971 72.8026 76.5331 72.8231 77.9122 72.788C79.6362 72.7441 81.593 72.788 83.5499 71.4715C85.1154 70.4184 86.128 68.1365 86.4386 67.1272C86.9511 64.5528 87.5755 58.342 85.9727 54.0943C84.3699 49.8465 81.7017 48.9308 80.568 49.0039Z" stroke="#FED142"/>
<circle cx="66" cy="80" r="2" fill="white"/>
<path d="M73.4193 37.486C73.1744 38.058 71.6841 39.1862 70.9697 39.6788C70.9259 39.6788 70.9171 39.6025 71.2321 39.2974C71.6258 38.9161 71.8445 37.2953 71.8445 36.628C71.8445 35.9606 71.4946 34.9596 70.8384 33.9585C70.1822 32.9575 68.9136 33.0528 68.1262 33.3389C67.3388 33.6249 67.0764 34.2922 67.2951 34.2446C67.5138 34.1969 68.2575 34.1016 69.0449 34.3876C69.6748 34.6164 70.2114 35.4045 70.4009 35.7699C70.2551 35.7699 69.8498 35.8081 69.3948 35.9606C68.8262 36.1513 69.1323 36.4373 68.3887 36.8663C67.7938 37.2095 67.0034 37.2318 66.6827 37.2C66.9743 37.486 67.6713 38.1915 68.1262 38.7254C68.6949 39.3927 69.6135 40.4891 70.1385 41.3948C70.6634 42.3005 71.4071 44.0642 72.3257 47.1627C73.2444 50.2611 72.1507 54.1699 71.4071 56.029C70.6634 57.8881 69.3948 59.6995 68.9574 59.6995C68.6075 59.6995 68.4616 60.1762 68.4325 60.4145L68.0387 61.3202L67.2076 61.0819C67.2076 60.6211 67.0239 59.8997 66.289 60.7005C66.079 61.12 65.9973 61.5744 65.9827 61.7492C65.8224 62.0193 65.4491 62.6263 65.2391 62.8933C64.9767 63.2269 63.9268 62.1782 63.4019 61.7492C62.9819 61.406 62.8769 60.2397 62.8769 59.6995H54.7841C54.0113 60.3827 52.2732 61.835 51.5033 62.1782C50.541 62.6073 50.3222 62.6549 48.7912 63.1793C47.2601 63.7036 47.5226 63.3223 47.1289 63.942C46.8139 64.4377 46.5893 65.6421 46.5164 66.1824L46.2102 74C44.2126 73.9841 39.9373 73.7331 38.8174 72.856C37.4176 71.7596 36.1927 68.2321 35.5366 65.3244C34.8804 62.4166 34.5304 57.9358 36.2802 53.1212C37.6801 49.2696 40.6547 47.9572 41.967 47.7824H51.6346C51.9553 47.687 52.7807 47.4296 53.5156 47.1627C54.4342 46.829 55.3091 46.972 56.7089 46.972C57.8288 46.972 59.4211 47.4487 60.0772 47.687C59.144 47.7029 56.8314 47.7919 55.0466 48.0207C52.8157 48.3067 52.0283 48.6881 51.5033 48.9264C50.9784 49.1648 49.8848 50.1658 48.7912 51.0715C47.6975 51.9772 48.1788 51.7865 46.9539 52.0725C45.974 52.3013 45.4987 51.6435 45.0175 51.7389C45.4112 51.9295 46.4465 52.2918 45.8165 52.4062C45.0291 52.5492 45.105 52.4062 44.755 51.8342C44.3943 51.2446 44.1426 50.9285 44.4488 51.7865C44.755 52.6446 44.6238 52.5016 45.28 52.9306C45.9361 53.3596 46.2102 52.9306 46.8227 52.8352C47.4351 52.7399 47.0414 52.6446 47.5226 52.6446C48.0038 52.6446 48.1788 52.9306 48.9224 53.8363C49.6661 54.742 49.3599 55.171 48.1788 58.3171C47.2339 60.834 46.0644 61.6539 45.5978 61.7492C46.3561 61.6539 48.17 61.4346 49.3599 61.3202C50.8472 61.1772 51.8533 60.4145 53.0781 59.6995C54.058 59.1275 54.7988 58.0946 55.0466 57.6497C54.8425 57.4432 54.338 56.7822 53.953 55.7907C53.4718 54.5513 53.4281 49.7368 53.6906 52.4062C53.953 55.0756 56.4902 56.315 58.4587 57.0301C60.4272 57.7451 59.7711 57.3161 60.7772 57.6497C61.7833 57.9834 61.5208 57.6497 61.4771 57.3161C61.4333 56.9824 60.8647 55.8383 60.7772 55.0756C60.6897 54.313 60.6022 53.7886 60.6022 52.6446C60.6022 51.5005 62.4395 49.8321 61.9145 50.7378C61.3896 51.6435 61.6958 51.8342 62.0895 54.5036C62.4832 57.1731 63.0956 57.2684 63.4019 58.3171C63.7081 59.3658 63.883 60.1285 64.1893 61.0819C64.4955 62.0352 64.7142 61.6062 65.2391 61.0819C65.7641 60.5575 65.3266 60.0332 65.5016 58.9845C65.6766 57.9358 66.464 56.2197 67.2076 55.171C67.9513 54.1223 68.4325 53.5979 68.6512 52.7876C68.8699 51.9772 68.8262 51.5005 68.9574 53.3119C69.0886 55.1233 67.9513 57.1254 68.4325 56.7917C68.9137 56.458 69.4386 55.5523 70.3572 53.5979C71.2759 51.6435 71.1884 49.0694 71.1884 48.4497C71.1884 47.8301 71.1446 47.4487 71.1009 46.5907C71.0571 45.7326 70.4447 44.3503 70.051 43.4446C69.6573 42.5389 68.4325 40.3938 67.9513 39.8694C67.4701 39.3451 66.5077 37.772 66.3327 37.3907C66.1869 37.0728 65.9802 36.5892 65.9155 36.4648C65.9024 36.4521 65.8953 36.4426 65.8953 36.4373C65.8953 36.4294 65.9026 36.4399 65.9155 36.4648C66.0196 36.5654 66.5031 36.8663 66.8139 36.8663C67.1639 36.8663 67.2514 36.8187 67.5576 36.7233C67.8638 36.628 68.3887 36.485 68.6512 35.9606C68.8612 35.5411 69.2345 35.4998 69.3948 35.5316C69.3803 35.5316 69.3249 35.4839 69.2199 35.2933C69.0886 35.0549 68.6512 34.9596 67.82 34.9596C66.9889 34.9596 66.5515 35.1503 66.1578 35.1979C65.7641 35.2456 65.5891 34.9119 65.4141 34.5306C65.2391 34.1492 65.4578 34.0539 65.4141 33.7202C65.3704 33.3865 65.5891 32.9098 65.5891 32.4808V31.0508C65.5891 30.705 65.8449 30.2353 65.9212 30.0911C65.9236 30.074 65.929 30.0606 65.939 30.0497C65.9475 30.0405 65.9395 30.0564 65.9212 30.0911C65.913 30.1485 65.939 30.2473 65.939 30.4311C65.939 30.6694 66.114 30.7171 66.3327 31.0508L66.5515 31.3845C66.5806 31.3686 66.6389 31.3273 66.6389 31.2891C66.6389 31.2415 66.6827 31.1461 66.6827 30.9078C66.6827 30.6694 66.7264 30.7648 66.8139 30.3358C66.9014 29.9067 67.3826 29.4301 67.2951 29.7161C67.2076 30.0021 67.4263 30.0021 67.5576 30.2881C67.6626 30.5169 67.7763 30.6694 67.82 30.7171H68.0388V30.6218C68.0534 30.5423 68.1 30.3262 68.17 30.0974C68.24 29.8686 68.4908 29.6843 68.6074 29.6207L69.0886 30.3358C69.1032 30.447 69.1674 30.6504 69.3074 30.5741C69.4823 30.4788 69.4823 30.2881 69.6573 29.9544C69.7973 29.6875 70.0073 29.6843 70.0948 29.7161V31.0508L70.2697 30.9554C70.2843 30.9396 70.3485 30.8506 70.4885 30.6218C70.6284 30.393 70.8967 30.3358 71.0134 30.3358V31.6705C71.1155 31.7817 71.3983 32.1185 71.7133 32.5762C72.107 33.1482 72.1508 33.5772 72.3695 34.6736C72.5445 35.5507 72.4132 36.7233 72.3257 37.2L72.457 36.7233C72.5445 36.3737 72.7369 35.4744 72.8069 34.6736C72.8944 33.6725 72.8944 32.4332 72.3257 31.2891C71.7571 30.1451 71.0571 29.6684 69.9635 29.144C68.873 28.6212 68.1305 28.7619 67.1286 28.9518L67.1201 28.9534C66.114 29.144 65.6328 29.7637 64.8892 30.5741C64.2942 31.2224 64.3205 32.1154 64.408 32.4808C64.2913 32.5603 63.9093 32.8145 63.3144 33.1959C62.5707 33.6725 62.0895 34.1492 61.5646 34.6736C61.0396 35.1979 60.2085 36.199 59.7711 36.8187C59.4211 37.3144 59.0128 38.2964 58.8524 38.7254C58.8233 38.8207 58.7474 39.0591 58.6774 39.2497C58.59 39.4881 58.59 39.4881 58.4587 39.7741C58.3275 40.0601 58.4587 40.0124 58.8524 39.4881C59.2461 38.9637 59.3774 38.7254 59.2461 39.0114C59.1149 39.2974 59.4211 39.4881 59.4648 39.6788C59.5086 39.8694 59.6836 39.9648 59.4648 40.0601C59.2461 40.1554 59.1149 40.0601 58.8087 40.2984C58.5637 40.4891 58.6483 40.5368 58.7212 40.5368L59.5086 41.2518H60.4272C60.9522 41.2518 60.6897 41.2041 60.5147 40.7275C60.2522 40.4415 60.3397 39.9171 60.3397 40.1078C60.3397 40.2984 60.5585 40.4415 60.7772 40.6321C60.9959 40.8228 61.3021 40.7751 62.0895 40.7275C62.8769 40.6798 62.7019 40.4891 63.883 39.6788C64.8279 39.0305 65.3849 37.6608 65.5453 37.057C65.5162 37.2 65.4753 37.7339 65.5453 38.7254C65.6328 39.9648 64.7142 39.6788 64.7142 40.4891C64.7142 41.2995 64.7579 43.9689 64.1893 44.7316C63.6206 45.4943 62.4395 45.971 62.7019 45.5896C62.9644 45.2083 63.4019 44.4456 63.4019 43.2062C63.4019 42.2147 62.9352 41.7444 62.7019 41.6332C62.4103 41.5378 61.6958 41.4044 61.1709 41.6332C60.6459 41.862 60.1064 42.0145 59.9023 42.0622C59.7127 42.094 59.2111 41.9954 58.7212 41.3471C58.2313 40.6989 57.613 40.505 57.3651 40.4891C57.788 39.3769 58.8874 36.7901 59.9023 35.3409C60.9172 33.8918 62.6582 32.5126 63.4019 32.0041C63.4164 31.7499 63.5331 31.108 63.883 30.5741C64.3205 29.9067 65.3266 28 68.0825 28C70.8384 28 72.282 29.6684 73.4193 31.5751C74.5567 33.4819 73.7256 36.771 73.4193 37.486Z" fill="#fff"/>
<path d="M62.2903 37C62.1613 37.2667 62.043 37.7778 62 38C62.0202 37.9074 62.1324 37.6333 62.4194 37.2778C62.778 36.8333 63.1613 36.8889 63.5806 36.6111C63.9161 36.3889 64 36.1111 64 36H62.9355C62.7742 36.2222 62.4194 36.7333 62.2903 37Z" fill="#ffffff"/>
<path d="M75.2388 49H81.0293C82.3727 49.1613 85.319 50.7328 86.3566 55.729C87.6537 61.9742 86.6346 66.768 86.3566 67.5597C86.0787 68.3513 85.1985 70.1105 83.8551 71.2101C82.5117 72.3096 81.261 72.6614 80.0102 72.7494C79.0096 72.8197 66.7151 72.896 60.6929 72.9253V74.7725H73.2005V75.784L71.9034 75.6081H71.0233L70.6063 75.916H70.0968H69.5409C69.4328 75.9599 69.2351 76.0831 69.3092 76.2238C69.3834 76.3645 69.4945 76.9275 69.5409 77.1914L68.7534 76.2238C68.6298 76.1212 68.355 75.916 68.2438 75.916C68.1048 75.916 67.5952 75.6081 67.5489 75.6081C67.5026 75.6081 67.4099 76.3118 67.0394 76.3558C66.6688 76.3997 66.0202 76.3558 65.6033 76.5757C65.1864 76.7956 65.0474 76.7956 64.4452 77.1914C63.843 77.5872 63.6577 77.4113 63.2407 78.1589C62.8238 78.9066 62.6849 79.3464 62.7775 79.4784C62.8702 79.6103 62.1753 79.0825 62.2679 78.6867C62.3606 78.2909 61.8973 78.5108 62.2679 77.983C62.6385 77.4553 62.8238 77.8071 63.1481 77.1474C62.7775 76.0479 62.8238 75.9599 62.5459 76.2238C62.2679 76.4877 62.6385 77.1474 61.8047 77.1474C60.9709 77.1474 60.6003 77.0155 60.5076 76.7956C60.415 76.5757 61.6194 76.3118 61.6194 76.0479C61.6194 75.784 62.9628 75.6521 61.6194 75.4322C60.276 75.2123 60.137 75.3882 60.0907 75.0803C60.0443 74.7725 59.9517 74.8604 60.0907 74.5965C60.2296 74.3327 60.4612 74.1128 60.3686 73.8929L60.3685 73.8925C60.2759 73.673 60.2759 73.6728 60.0907 73.4531C59.9424 73.2771 59.7201 72.7054 59.6274 72.4415C59.8745 72.2216 60.3686 71.7466 60.3686 71.6059C60.3686 71.43 61.2488 71.298 60.3686 70.5943C59.4884 69.8906 59.6737 70.9462 59.0252 69.4508C58.3766 67.9555 58.6546 66.856 59.0252 66.5921C59.3958 66.3282 59.6274 66.2843 59.6274 65.5366C59.6274 65.1681 59.5688 64.9254 59.5058 64.7796C59.4674 64.7188 59.4304 64.663 59.3958 64.613C59.4254 64.6355 59.4665 64.6887 59.5058 64.7796C59.8953 65.3968 60.428 66.5233 60.0907 67.1639C60.3686 69.011 60.4149 69.187 61.1098 69.143C61.8047 69.099 62.3142 68.5712 62.5459 69.011C62.7775 69.4508 63.8892 67.9555 63.565 69.5828C63.2315 71.2013 63.8584 71.8111 64.2135 71.9137C64.5532 71.8991 65.4643 71.8434 66.3908 71.7378C67.5489 71.6059 69.6799 71.7818 68.2438 70.8142C66.8077 69.8467 66.993 70.6823 66.3908 69.5828C65.7886 68.4833 64.8158 67.7356 65.6033 67.5597C66.3908 67.3838 67.2709 68.2634 67.6415 67.4277C67.938 66.7593 68.1666 66.4455 68.2438 66.3722C68.46 66.2549 68.8274 66.2491 68.568 67.1639C68.2438 68.3074 68.2438 68.4393 68.2438 68.6152C68.2438 68.7911 67.1783 69.3189 68.2438 69.4508C69.3092 69.5828 70.2358 70.2425 70.0968 70.5943C69.9856 70.8758 69.8342 71.1221 69.7725 71.2101C70.0813 71.2834 70.7639 71.43 71.0233 71.43H73.5711C73.8799 71.7085 74.5346 72.16 74.6829 71.7378C74.8682 71.2101 77.0454 70.7703 74.8682 70.1105C73.5711 69.011 74.4976 68.6152 74.6829 68.6152C74.8682 68.6152 74.4512 68.0875 75.1924 68.3513C75.9336 68.6152 76.3505 68.0875 76.5358 68.6152C76.7211 69.143 76.1652 69.055 76.9991 69.5828C77.8329 70.1105 78.2498 70.1545 78.2035 70.3744C78.1572 70.5943 77.3697 70.4184 78.2035 70.8142C79.0374 71.2101 79.0374 70.8142 79.269 70.8142C79.5006 70.8142 79.5932 71.6059 80.4734 71.2101C81.3536 70.8142 81.5852 70.6383 81.7242 70.3744C81.8631 70.1105 83.8551 66.5042 83.8551 66.3722C83.8551 66.2403 83.7161 65.5366 83.0676 65.5366C82.419 65.5366 81.7242 65.1408 81.7242 65.7565C81.7242 66.3722 80.0102 67.1199 80.6587 66.1083C81.1775 65.2991 81.5852 64.9502 81.7242 64.8769C81.7396 64.5837 81.7983 63.9357 81.9095 63.6894C82.0484 63.3816 82.9286 63.2496 83.2529 63.4695C83.5771 63.6894 83.2529 64.0852 83.8551 64.1732C84.4573 64.2612 84.6426 63.9533 84.6426 63.4695V62.5899C84.6426 62.37 82.558 58.3678 80.6587 59.0715C78.7594 59.7752 78.2035 60.6108 77.7403 59.5993C76.5173 58.6141 75.7483 59.1888 75.5167 59.5993C75.5167 59.6726 75.4055 59.8895 74.9608 60.171C74.4049 60.5228 75.424 63.8214 75.9799 63.4695C76.5358 63.1177 78.3888 62.8978 76.8601 63.6454C75.3314 64.3931 75.3777 63.6894 74.2659 64.3931C72.274 65.5366 70.3747 65.8005 71.6718 64.3931C72.9689 62.9857 73.2005 63.1177 73.2931 62.9857C73.3858 62.8538 74.8218 62.1501 73.5711 62.1941C72.3203 62.2381 72.6909 61.9742 71.8571 62.1941C71.19 62.37 70.0041 62.6486 69.4945 62.7658L67.8268 64.613L66.3908 64.8769L65.8812 64.0413C65.7731 64.0119 65.5199 63.8565 65.3716 63.4695C65.1863 62.9857 65.2327 62.9418 64.8621 62.7658C64.4915 62.5899 61.851 62.37 61.1098 62.458C60.3686 62.5459 60.7855 62.2821 59.7664 62.6339C58.7473 62.9857 55.1803 62.502 54.6707 62.6339C54.1611 62.7658 53.0494 62.37 52.8641 63.2056C52.6788 64.0413 52.4935 62.9418 53.281 64.8769C52.8641 68.0435 53.6979 68.8351 52.3545 67.9995C51.0111 67.1639 51.289 66.5921 50.6868 66.768C50.0846 66.944 49.9456 66.856 49.9456 67.4277C49.9456 67.9995 50.1309 68.0435 50.0383 68.5273C49.9456 69.011 50.7331 69.011 50.0383 69.4508C49.5194 70.2249 49.3279 70.9462 49.2971 71.2101C49.189 71.2687 48.9821 71.4915 49.0191 71.9137C49.0654 72.4415 48.9728 72.4415 49.0191 73.1012C49.0654 73.7609 48.8338 77.1914 49.2971 78.3349C49.7603 79.4784 51.2427 77.8951 52.1692 78.6867C53.0957 79.4784 53.3273 79.6103 53.0957 79.8742C52.8641 80.1381 52.6788 80.4899 52.1692 80.314C51.3354 80.5339 50.9184 80.5779 51.3817 81.1496C51.8449 81.7214 52.2155 81.6774 52.3545 81.7214C52.4935 81.7653 53.281 81.0177 52.8177 81.7214C52.3545 82.425 52.5861 82.425 51.9839 82.425C51.5207 82.9528 51.706 82.9968 51.8449 83.1287C51.9561 83.2343 52.3236 84.0523 52.4935 84.4481C52.627 84.6699 53.0394 85.0835 53.7861 85.3894C54.0612 85.4856 54.3331 85.5681 54.5985 85.6384C54.6671 85.6532 54.7375 85.667 54.8097 85.6796C56.218 85.9259 57.2495 85.9874 57.5892 85.9874C56.9536 86.0316 55.8474 85.9694 54.5985 85.6384C54.2929 85.5726 54.0227 85.4864 53.7861 85.3894C52.7764 85.0365 51.7223 84.4992 50.7795 83.7005C47.7684 81.1496 48.0463 81.0616 48.0463 79.8742C48.0463 78.9242 48.0154 74.6112 48 72.5734L48.0926 66.9C48.1235 66.2256 48.4632 64.6658 49.575 63.8214C50.9648 62.7658 51.289 62.414 54.6707 62.1941C57.3761 62.0182 62.0672 61.9742 64.0746 61.9742H64.3062C64.4606 62.0768 64.8528 62.3524 65.1864 62.6339C65.6033 62.9857 66.3445 63.6015 66.5761 63.4695C66.8077 63.3376 67.132 62.8978 67.271 62.6339C67.3821 62.4228 67.5643 62.1061 67.6415 61.9742H69.4945C70.1894 61.9156 71.8941 61.4552 73.1542 60.083C74.7292 58.3678 74.9608 57.0044 75.0998 56.3887C75.211 55.8961 75.2388 54.4829 75.2388 53.8378L75.2388 49Z" fill="#fff"/>
<path d="M75.2388 49H81.0293C82.3727 49.1613 85.319 50.7328 86.3566 55.729C87.6537 61.9742 86.6346 66.768 86.3566 67.5597C86.0787 68.3513 85.1985 70.1105 83.8551 71.2101C82.5117 72.3096 81.261 72.6614 80.0102 72.7494C79.0096 72.8197 66.7151 72.896 60.6929 72.9253V74.7725H73.2005V75.784L71.9034 75.6081H71.0233L70.6063 75.916H70.0968H69.5409C69.4328 75.9599 69.2351 76.0831 69.3092 76.2238C69.3834 76.3645 69.4945 76.9275 69.5409 77.1914L68.7534 76.2238C68.6298 76.1212 68.355 75.916 68.2438 75.916C68.1048 75.916 67.5952 75.6081 67.5489 75.6081C67.5026 75.6081 67.4099 76.3118 67.0394 76.3558C66.6688 76.3997 66.0202 76.3558 65.6033 76.5757C65.1864 76.7956 65.0474 76.7956 64.4452 77.1914C63.843 77.5872 63.6577 77.4113 63.2407 78.1589C62.8238 78.9066 62.6849 79.3464 62.7775 79.4784C62.8702 79.6103 62.1753 79.0825 62.2679 78.6867C62.3606 78.2909 61.8973 78.5108 62.2679 77.983C62.6385 77.4553 62.8238 77.8071 63.1481 77.1474C62.7775 76.0479 62.8238 75.9599 62.5459 76.2238C62.2679 76.4877 62.6385 77.1474 61.8047 77.1474C60.9709 77.1474 60.6003 77.0155 60.5076 76.7956C60.415 76.5757 61.6194 76.3118 61.6194 76.0479C61.6194 75.784 62.9628 75.6521 61.6194 75.4322C60.276 75.2123 60.137 75.3882 60.0907 75.0803C60.0443 74.7725 59.9517 74.8604 60.0907 74.5965C60.2296 74.3327 60.4612 74.1128 60.3686 73.8929C60.2759 73.673 60.276 73.673 60.0907 73.4531C59.9424 73.2771 59.7201 72.7054 59.6274 72.4415C59.8745 72.2216 60.3686 71.7466 60.3686 71.6059C60.3686 71.43 61.2488 71.298 60.3686 70.5943C59.4884 69.8906 59.6737 70.9462 59.0252 69.4508C58.3766 67.9555 58.6546 66.856 59.0252 66.5921C59.3958 66.3282 59.6274 66.2843 59.6274 65.5366C59.6274 64.9385 59.473 64.6717 59.3958 64.613C59.7818 65.1701 60.4613 66.4602 60.0907 67.1639C60.3686 69.011 60.4149 69.187 61.1098 69.143C61.8047 69.099 62.3142 68.5712 62.5459 69.011C62.7775 69.4508 63.8892 67.9555 63.565 69.5828C63.2315 71.2013 63.8584 71.8111 64.2135 71.9137C64.5532 71.8991 65.4643 71.8434 66.3908 71.7378C67.5489 71.6059 69.6799 71.7818 68.2438 70.8142C66.8077 69.8467 66.993 70.6823 66.3908 69.5828C65.7886 68.4833 64.8158 67.7356 65.6033 67.5597C66.3908 67.3838 67.2709 68.2634 67.6415 67.4278C67.938 66.7592 68.1666 66.4455 68.2438 66.3722C68.46 66.2549 68.8274 66.2491 68.568 67.1639C68.2438 68.3074 68.2438 68.4393 68.2438 68.6152C68.2438 68.7911 67.1783 69.3189 68.2438 69.4508C69.3092 69.5828 70.2358 70.2425 70.0968 70.5943C69.9856 70.8758 69.8342 71.1221 69.7725 71.2101C70.0813 71.2834 70.7639 71.43 71.0233 71.43C71.2826 71.43 72.8299 71.43 73.5711 71.43C73.8799 71.7085 74.5346 72.16 74.6829 71.7378C74.8682 71.2101 77.0454 70.7703 74.8682 70.1105C73.5711 69.011 74.4976 68.6152 74.6829 68.6152C74.8682 68.6152 74.4512 68.0875 75.1924 68.3513C75.9336 68.6152 76.3505 68.0875 76.5358 68.6152C76.7211 69.143 76.1652 69.055 76.9991 69.5828C77.8329 70.1105 78.2498 70.1545 78.2035 70.3744C78.1572 70.5943 77.3697 70.4184 78.2035 70.8142C79.0374 71.2101 79.0374 70.8142 79.269 70.8142C79.5006 70.8142 79.5932 71.6059 80.4734 71.2101C81.3536 70.8142 81.5852 70.6383 81.7242 70.3744C81.8631 70.1105 83.8551 66.5042 83.8551 66.3722C83.8551 66.2403 83.7161 65.5366 83.0676 65.5366C82.419 65.5366 81.7242 65.1408 81.7242 65.7565C81.7242 66.3722 80.0102 67.1199 80.6587 66.1083C81.1775 65.2991 81.5852 64.9502 81.7242 64.8769C81.7396 64.5837 81.7983 63.9357 81.9095 63.6894C82.0484 63.3816 82.9286 63.2496 83.2529 63.4695C83.5771 63.6894 83.2529 64.0852 83.8551 64.1732C84.4573 64.2612 84.6426 63.9533 84.6426 63.4695C84.6426 62.9857 84.6426 62.8098 84.6426 62.5899C84.6426 62.37 82.558 58.3678 80.6587 59.0715C78.7594 59.7752 78.2035 60.6108 77.7403 59.5993C76.5173 58.6141 75.7483 59.1888 75.5167 59.5993C75.5167 59.6726 75.4055 59.8895 74.9608 60.171C74.4049 60.5228 75.424 63.8214 75.9799 63.4695C76.5358 63.1177 78.3888 62.8978 76.8601 63.6454C75.3314 64.3931 75.3777 63.6894 74.2659 64.3931C72.274 65.5366 70.3747 65.8005 71.6718 64.3931C72.9689 62.9857 73.2005 63.1177 73.2931 62.9857C73.3858 62.8538 74.8218 62.1501 73.5711 62.1941C72.3203 62.2381 72.6909 61.9742 71.8571 62.1941C71.19 62.37 70.0041 62.6486 69.4945 62.7658L67.8268 64.613L66.3908 64.8769L65.8812 64.0413C65.7731 64.0119 65.5199 63.8565 65.3716 63.4695C65.1864 62.9857 65.2327 62.9418 64.8621 62.7658C64.4915 62.5899 61.851 62.37 61.1098 62.458C60.3686 62.5459 60.7855 62.2821 59.7664 62.6339C58.7473 62.9857 55.1803 62.502 54.6707 62.6339C54.1611 62.7658 53.0494 62.37 52.8641 63.2056C52.6788 64.0413 52.4935 62.9418 53.281 64.8769C52.8641 68.0435 53.6979 68.8351 52.3545 67.9995C51.0111 67.1639 51.289 66.5921 50.6868 66.768C50.0846 66.944 49.9456 66.856 49.9456 67.4278C49.9456 67.9995 50.1309 68.0435 50.0383 68.5273C49.9456 69.011 50.7331 69.011 50.0383 69.4508C49.5194 70.2249 49.3279 70.9462 49.2971 71.2101C49.189 71.2687 48.9821 71.4915 49.0191 71.9137C49.0654 72.4415 48.9728 72.4415 49.0191 73.1012C49.0654 73.7609 48.8338 77.1914 49.2971 78.3349C49.7603 79.4784 51.2427 77.8951 52.1692 78.6867C53.0957 79.4784 53.3273 79.6103 53.0957 79.8742C52.8641 80.1381 52.6788 80.4899 52.1692 80.314C51.3354 80.5339 50.9184 80.5779 51.3817 81.1496C51.8449 81.7214 52.2155 81.6774 52.3545 81.7214C52.4935 81.7653 53.281 81.0177 52.8177 81.7214C52.3545 82.425 52.5861 82.425 51.9839 82.425C51.5207 82.9528 51.706 82.9968 51.8449 83.1287C51.9561 83.2343 52.3236 84.0523 52.4935 84.4481C52.6788 84.756 53.4014 85.4333 54.8097 85.6796C56.218 85.9259 57.2495 85.9874 57.5892 85.9874C56.323 86.0754 53.1883 85.7412 50.7795 83.7005C47.7684 81.1496 48.0463 81.0616 48.0463 79.8742C48.0463 78.9242 48.0154 74.6112 48 72.5734L48.0926 66.9C48.1235 66.2256 48.4632 64.6658 49.575 63.8214C50.9648 62.7658 51.289 62.414 54.6707 62.1941C57.3761 62.0182 62.0672 61.9742 64.0746 61.9742H64.3062C64.4606 62.0768 64.8528 62.3524 65.1864 62.6339C65.6033 62.9857 66.3445 63.6015 66.5761 63.4695C66.8077 63.3376 67.132 62.8978 67.271 62.6339C67.3821 62.4228 67.5643 62.1061 67.6415 61.9742H69.4945C70.1894 61.9156 71.8941 61.4552 73.1542 60.083C74.7292 58.3678 74.9608 57.0044 75.0998 56.3887C75.211 55.8961 75.2388 54.4829 75.2388 53.8378L75.2388 49Z" stroke="#ffffff"/>
<path d="M65 79.9592L65.8667 78L67 79.9592L66.1333 82L65 79.9592Z" fill="#ffffff"/>
<circle cx="61.0005" cy="61.4819" r="42.4868" transform="rotate(37.6917 61.0005 61.4819)" stroke="#ffffff" stroke-width="2"/>
<mask id="path-9-inside-1_23_220" fill="white">
<path d="M95.4122 88.0703C91.9206 92.5893 87.573 96.3763 82.6178 99.2151C77.6626 102.054 72.1968 103.889 66.5324 104.615L65.1276 93.6614C69.3534 93.1194 73.4312 91.7504 77.128 89.6325C80.8248 87.5146 84.0682 84.6893 86.6731 81.318L95.4122 88.0703Z"/>
</mask>
<path d="M95.4122 88.0703C91.9206 92.5893 87.573 96.3763 82.6178 99.2151C77.6626 102.054 72.1968 103.889 66.5324 104.615L65.1276 93.6614C69.3534 93.1194 73.4312 91.7504 77.128 89.6325C80.8248 87.5146 84.0682 84.6893 86.6731 81.318L95.4122 88.0703Z" stroke="#ffffff" stroke-width="4" mask="url(#path-9-inside-1_23_220)"/>
<mask id="path-10-inside-2_23_220" fill="white">
<path d="M34.4122 95.8936C25.2857 88.8419 19.3342 78.4536 17.867 67.0139L28.8211 65.609C29.9157 74.1435 34.3557 81.8936 41.1645 87.1545L34.4122 95.8936Z"/>
</mask>
<path d="M34.4122 95.8936C25.2857 88.8419 19.3342 78.4536 17.867 67.0139L28.8211 65.609C29.9157 74.1435 34.3557 81.8936 41.1645 87.1545L34.4122 95.8936Z" stroke="#ffffff" stroke-width="4" mask="url(#path-10-inside-2_23_220)"/>
<mask id="path-11-inside-3_23_220" fill="white">
<path d="M26.5889 34.8936C33.6406 25.7671 44.0289 19.8156 55.4686 18.3484L56.8735 29.3025C48.339 30.397 40.5888 34.8371 35.328 41.6459L26.5889 34.8936Z"/>
</mask>
<path d="M26.5889 34.8936C33.6406 25.7671 44.0289 19.8156 55.4686 18.3484L56.8735 29.3025C48.339 30.397 40.5888 34.8371 35.328 41.6459L26.5889 34.8936Z" stroke="#ffffff" stroke-width="4" mask="url(#path-11-inside-3_23_220)"/>
<mask id="path-12-inside-4_23_220" fill="white">
<path d="M87.5889 27.0703C96.7154 34.1219 102.667 44.5103 104.134 55.95L93.18 57.3549C92.0854 48.8203 87.6454 41.0702 80.8366 35.8094L87.5889 27.0703Z"/>
</mask>
<path d="M87.5889 27.0703C96.7154 34.1219 102.667 44.5103 104.134 55.95L93.18 57.3549C92.0854 48.8203 87.6454 41.0702 80.8366 35.8094L87.5889 27.0703Z" stroke="#ffffff" stroke-width="4" mask="url(#path-12-inside-4_23_220)"/>
</svg>
