<svg width="1320" height="1320" viewBox="0 0 1320 1320" fill="none" xmlns="http://www.w3.org/2000/svg">
<path d="M864.982 517.527H808.982V589.027C808.982 595.86 805.882 614.427 793.482 634.027C781.082 653.627 769.982 661.982 744.982 665.027H625.982C605.315 663.86 559.382 664.927 540.982 678.527C522.582 692.127 516.315 714.527 515.482 724.027V872.527C515.482 884.527 520.982 897.027 551.982 917.027C582.982 937.027 591.982 938.027 656.482 939.027C720.982 940.027 757.482 922.027 772.482 909.027C784.482 898.627 787.149 888.36 786.982 884.527V811.527H650.982V788.527C713.982 788.693 821.682 788.927 836.482 788.527C854.982 788.027 875.982 788.527 896.982 773.527C913.782 761.527 924.649 735.527 927.982 724.027C933.482 694.693 940.182 623.927 922.982 575.527C905.782 527.127 877.149 516.693 864.982 517.527Z" stroke="#FED142"/>
<circle cx="713.482" cy="870.482" r="25" fill="white"/>
<path d="M809.615 411.982C806.815 417.982 789.782 429.815 781.615 434.982C781.115 434.982 781.015 434.182 784.615 430.982C789.115 426.982 791.615 409.982 791.615 402.982C791.615 395.982 787.615 385.482 780.115 374.982C772.615 364.482 758.115 365.482 749.115 368.482C740.115 371.482 737.115 378.482 739.615 377.982C742.115 377.482 750.615 376.482 759.615 379.482C766.815 381.882 772.948 390.148 775.115 393.982C773.448 393.982 768.815 394.382 763.615 395.982C757.116 397.982 760.615 400.982 752.115 405.482C745.315 409.082 736.281 409.315 732.615 408.982C735.948 411.982 743.915 419.382 749.115 424.982C755.614 431.982 766.115 443.482 772.115 452.982C778.115 462.482 786.615 480.982 797.115 513.482C807.616 545.982 795.115 586.982 786.615 606.482C778.115 625.982 763.615 644.982 758.615 644.982C754.615 644.982 752.949 649.982 752.615 652.482L748.115 661.982L738.615 659.482C738.615 654.648 736.515 647.082 728.115 655.482C725.715 659.882 724.781 664.648 724.615 666.482C722.782 669.315 718.515 675.682 716.115 678.482C713.115 681.982 701.115 670.982 695.115 666.482C690.316 662.882 689.115 650.648 689.115 644.982H596.615C587.781 652.148 567.915 667.382 559.115 670.982C548.115 675.482 545.615 675.982 528.115 681.482C510.615 686.982 513.615 682.982 509.115 689.482C505.515 694.682 502.948 707.315 502.115 712.982L498.615 794.982C475.781 794.815 426.915 792.182 414.115 782.982C398.115 771.482 384.115 734.482 376.615 703.982C369.115 673.482 365.115 626.482 385.115 575.982C401.115 535.582 435.115 521.815 450.115 519.982H560.615C564.282 518.982 573.715 516.282 582.115 513.482C592.615 509.982 602.615 511.482 618.615 511.482C631.415 511.482 649.615 516.482 657.115 518.982C646.448 519.148 620.015 520.082 599.615 522.482C574.115 525.482 565.115 529.482 559.115 531.982C553.115 534.482 540.615 544.982 528.115 554.482C515.615 563.982 521.115 561.982 507.115 564.982C495.915 567.382 490.482 560.482 484.982 561.482C489.482 563.482 501.315 567.282 494.115 568.482C485.115 569.982 485.982 568.482 481.982 562.482C477.859 556.297 474.982 552.982 478.482 561.982C481.982 570.982 480.482 569.482 487.982 573.982C495.482 578.482 498.615 573.982 505.615 572.982C512.615 571.982 508.115 570.982 513.615 570.982C519.115 570.982 521.115 573.982 529.615 583.482C538.115 592.982 534.615 597.482 521.115 630.482C510.315 656.882 496.948 665.482 491.615 666.482C500.282 665.482 521.015 663.182 534.615 661.982C551.615 660.482 563.115 652.482 577.115 644.982C588.315 638.982 596.782 628.148 599.615 623.482C597.282 621.315 591.515 614.382 587.115 603.982C581.615 590.982 581.115 540.482 584.115 568.482C587.115 596.482 616.115 609.482 638.615 616.982C661.115 624.482 653.615 619.982 665.115 623.482C676.615 626.982 673.615 623.482 673.115 619.982C672.615 616.482 666.115 604.482 665.115 596.482C664.115 588.482 663.115 582.982 663.115 570.982C663.115 558.982 684.115 541.482 678.115 550.982C672.115 560.482 675.615 562.482 680.115 590.482C684.615 618.482 691.615 619.482 695.115 630.482C698.615 641.482 700.615 649.482 704.115 659.482C707.615 669.482 710.115 664.982 716.115 659.482C722.115 653.982 717.115 648.482 719.115 637.482C721.115 626.482 730.115 608.482 738.615 597.482C747.115 586.482 752.615 580.982 755.115 572.482C757.615 563.982 757.115 558.982 758.615 577.982C760.115 596.982 747.115 617.982 752.615 614.482C758.115 610.982 764.115 601.482 774.615 580.982C785.115 560.482 784.115 533.482 784.115 526.982C784.115 520.482 783.615 516.482 783.115 507.482C782.615 498.482 775.615 483.982 771.115 474.482C766.615 464.982 752.615 442.482 747.115 436.982C741.615 431.482 730.615 414.982 728.615 410.982C726.948 407.647 724.586 402.576 723.846 401.27C723.696 401.137 723.615 401.038 723.615 400.982C723.615 400.899 723.698 401.009 723.846 401.27C725.036 402.326 730.562 405.482 734.115 405.482C738.115 405.482 739.115 404.982 742.615 403.982C746.115 402.982 752.115 401.482 755.115 395.982C757.498 391.613 761.721 391.155 763.575 391.475C763.361 391.408 762.735 390.847 761.615 388.982C760.115 386.482 755.115 385.482 745.615 385.482C736.115 385.482 731.115 387.482 726.615 387.982C722.115 388.482 720.115 384.982 718.115 380.982C716.115 376.982 718.615 375.982 718.115 372.482C717.615 368.982 720.115 363.982 720.115 359.482V344.482C720.115 340.855 723.039 335.928 723.911 334.415C723.939 334.237 724.001 334.096 724.115 333.982C724.212 333.885 724.121 334.051 723.911 334.415C723.818 335.018 724.115 336.054 724.115 337.982C724.115 340.482 726.115 340.982 728.615 344.482L731.115 347.982C731.449 347.815 732.115 347.382 732.115 346.982C732.115 346.482 732.615 345.482 732.615 342.982C732.615 340.482 733.115 341.482 734.115 336.982C735.115 332.482 740.615 327.482 739.615 330.482C738.615 333.482 741.115 333.482 742.615 336.482C743.815 338.882 745.115 340.482 745.615 340.982H748.115V339.982C748.282 339.148 748.815 336.882 749.615 334.482C750.415 332.082 753.282 330.148 754.615 329.482L760.115 336.982C760.282 338.148 761.015 340.282 762.615 339.482C764.615 338.482 764.615 336.482 766.615 332.982C768.215 330.182 770.615 330.148 771.615 330.482V344.482L773.615 343.482C773.782 343.315 774.515 342.382 776.115 339.982C777.715 337.582 780.782 336.982 782.115 336.982V350.982C783.282 352.148 786.515 355.682 790.115 360.482C794.615 366.482 795.115 370.982 797.615 382.482C799.615 391.682 798.115 403.982 797.115 408.982L798.615 403.982C799.615 400.315 801.815 390.882 802.615 382.482C803.615 371.982 803.615 358.982 797.115 346.982C790.615 334.982 782.615 329.982 770.115 324.482C757.65 318.997 749.163 320.473 737.712 322.465L737.615 322.482C726.115 324.482 720.615 330.982 712.115 339.482C705.315 346.282 705.615 355.648 706.615 359.482C705.282 360.315 700.915 362.982 694.115 366.982C685.615 371.982 680.115 376.982 674.115 382.482C668.115 387.982 658.615 398.482 653.615 404.982C649.615 410.182 644.949 420.482 643.115 424.982C642.782 425.982 641.915 428.482 641.115 430.482C640.115 432.982 640.115 432.982 638.615 435.982C637.115 438.982 638.615 438.482 643.115 432.982C647.615 427.482 649.115 424.982 647.615 427.982C646.115 430.982 649.615 432.982 650.115 434.982C650.615 436.982 652.615 437.982 650.115 438.982C647.615 439.982 646.115 438.982 642.615 441.482C639.815 443.482 640.782 443.982 641.615 443.982L650.615 451.482H661.115C667.115 451.482 664.115 450.982 662.115 445.982C659.115 442.982 660.115 437.482 660.115 439.482C660.115 441.482 662.615 442.982 665.115 444.982C667.615 446.982 671.115 446.482 680.115 445.982C689.115 445.482 687.115 443.482 700.615 434.982C711.415 428.182 717.782 413.815 719.615 407.482C719.282 408.982 718.815 414.582 719.615 424.982C720.615 437.982 710.115 434.982 710.115 443.482C710.115 451.982 710.615 479.982 704.115 487.982C697.615 495.982 684.115 500.982 687.115 496.982C690.115 492.982 695.115 484.982 695.115 471.982C695.115 461.582 689.782 456.648 687.115 455.482C683.782 454.482 675.615 453.082 669.615 455.482C663.615 457.882 657.449 459.482 655.115 459.982C652.949 460.315 647.215 459.282 641.615 452.482C636.015 445.682 628.949 443.648 626.115 443.482C630.949 431.815 643.515 404.682 655.115 389.482C666.715 374.282 686.615 359.815 695.115 354.482C695.282 351.815 696.615 345.082 700.615 339.482C705.615 332.482 717.115 312.482 748.615 312.482C780.115 312.482 796.615 329.982 809.615 349.982C822.615 369.982 813.115 404.482 809.615 411.982Z" fill="black"/>
<path d="M676.982 400.482C674.982 402.882 673.149 407.482 672.482 409.482C672.795 408.648 674.534 406.182 678.982 402.982C684.542 398.982 690.482 399.482 696.982 396.982C702.182 394.982 703.482 392.482 703.482 391.482H686.982C684.482 393.482 678.982 398.082 676.982 400.482Z" fill="black"/>
<path d="M808.482 517.482H870.982C885.482 519.315 917.282 537.182 928.482 593.982C942.482 664.982 931.482 719.482 928.482 728.482C925.482 737.482 915.982 757.482 901.482 769.982C886.982 782.482 873.482 786.482 859.982 787.482C849.182 788.282 716.482 789.148 651.482 789.482V810.482H786.482V821.982L772.482 819.982H762.982L758.482 823.482H752.982H746.982C745.815 823.982 743.682 825.382 744.482 826.982C745.282 828.582 746.482 834.982 746.982 837.982L738.482 826.982C737.149 825.815 734.182 823.482 732.982 823.482C731.482 823.482 725.982 819.982 725.482 819.982C724.982 819.982 723.982 827.982 719.982 828.482C715.982 828.982 708.982 828.482 704.482 830.982C699.982 833.482 698.482 833.482 691.982 837.982C685.482 842.482 683.482 840.482 678.982 848.982C674.482 857.482 672.982 862.482 673.982 863.982C674.982 865.482 667.482 859.482 668.482 854.982C669.482 850.482 664.482 852.982 668.482 846.982C672.482 840.982 674.482 844.982 677.982 837.482C673.982 824.982 674.482 823.982 671.482 826.982C668.482 829.982 672.482 837.482 663.482 837.482C654.482 837.482 650.482 835.982 649.482 833.482C648.482 830.982 661.482 827.982 661.482 824.982C661.482 821.982 675.982 820.482 661.482 817.982C646.982 815.482 645.482 817.482 644.982 813.982C644.482 810.482 643.482 811.482 644.982 808.482C646.482 805.482 648.982 802.982 647.982 800.482L647.98 800.478C646.982 797.982 646.981 797.981 644.982 795.482C643.382 793.482 640.982 786.982 639.982 783.982C642.648 781.482 647.982 776.082 647.982 774.482C647.982 772.482 657.482 770.982 647.982 762.982C638.482 754.982 640.482 766.982 633.482 749.982C626.482 732.982 629.482 720.482 633.482 717.482C637.482 714.482 639.982 713.982 639.982 705.482C639.982 701.293 639.349 698.534 638.669 696.876C638.255 696.185 637.856 695.55 637.482 694.982C637.802 695.238 638.245 695.843 638.669 696.876C642.873 703.892 648.623 716.699 644.982 723.982C647.982 744.982 648.482 746.982 655.982 746.482C663.482 745.982 668.982 739.982 671.482 744.982C673.982 749.982 685.982 732.982 682.482 751.482C678.882 769.882 685.649 776.815 689.482 777.982C693.148 777.815 702.982 777.182 712.982 775.982C725.482 774.482 748.482 776.482 732.982 765.482C717.482 754.482 719.482 763.982 712.982 751.482C706.482 738.982 695.982 730.482 704.482 728.482C712.982 726.482 722.482 736.482 726.482 726.982C729.682 719.382 732.149 715.815 732.982 714.982C735.315 713.648 739.282 713.582 736.482 723.982C732.982 736.982 732.982 738.482 732.982 740.482C732.982 742.482 721.482 748.482 732.982 749.982C744.482 751.482 754.482 758.982 752.982 762.982C751.782 766.182 750.148 768.982 749.482 769.982C752.815 770.815 760.182 772.482 762.982 772.482H790.482C793.815 775.648 800.882 780.782 802.482 775.982C804.482 769.982 827.982 764.982 804.482 757.482C790.482 744.982 800.482 740.482 802.482 740.482C804.482 740.482 799.982 734.482 807.982 737.482C815.982 740.482 820.482 734.482 822.482 740.482C824.482 746.482 818.482 745.482 827.482 751.482C836.482 757.482 840.982 757.982 840.482 760.482C839.982 762.982 831.482 760.982 840.482 765.482C849.482 769.982 849.482 765.482 851.982 765.482C854.482 765.482 855.482 774.482 864.982 769.982C874.482 765.482 876.982 763.482 878.482 760.482C879.982 757.482 901.482 716.482 901.482 714.982C901.482 713.482 899.982 705.482 892.982 705.482C885.982 705.482 878.482 700.982 878.482 707.982C878.482 714.982 859.982 723.482 866.982 711.982C872.582 702.782 876.982 698.815 878.482 697.982C878.649 694.648 879.282 687.282 880.482 684.482C881.982 680.982 891.482 679.482 894.982 681.982C898.482 684.482 894.982 688.982 901.482 689.982C907.982 690.982 909.982 687.482 909.982 681.982V671.982C909.982 669.482 887.482 623.982 866.982 631.982C846.482 639.982 840.482 649.482 835.482 637.982C822.282 626.782 813.982 633.315 811.482 637.982C811.482 638.815 810.282 641.282 805.482 644.482C799.482 648.482 810.482 685.982 816.482 681.982C822.482 677.982 842.482 675.482 825.982 683.982C809.482 692.482 809.982 684.482 797.982 692.482C776.482 705.482 755.982 708.482 769.982 692.482C783.982 676.482 786.482 677.982 787.482 676.482C788.482 674.982 803.982 666.982 790.482 667.482C776.982 667.982 780.982 664.982 771.982 667.482C764.782 669.482 751.982 672.648 746.482 673.982L728.482 694.982L712.982 697.982L707.482 688.482C706.315 688.148 703.582 686.382 701.982 681.982C699.982 676.482 700.482 675.982 696.482 673.982C692.482 671.982 663.982 669.482 655.982 670.482C647.982 671.482 652.482 668.482 641.482 672.482C630.482 676.482 591.982 670.982 586.482 672.482C580.982 673.982 568.982 669.482 566.982 678.982C564.982 688.482 562.982 675.982 571.482 697.982C566.982 733.982 575.982 742.982 561.482 733.482C546.982 723.982 549.982 717.482 543.482 719.482C536.982 721.482 535.482 720.482 535.482 726.982C535.482 733.482 537.482 733.982 536.482 739.482C535.482 744.982 543.982 744.982 536.482 749.982C530.882 758.782 528.815 766.982 528.482 769.982C527.315 770.648 525.082 773.182 525.482 777.982C525.982 783.982 524.982 783.982 525.482 791.482C525.982 798.982 523.482 837.982 528.482 850.982C533.482 863.982 549.482 845.982 559.482 854.982C569.482 863.982 571.982 865.482 569.482 868.482C566.982 871.482 564.982 875.482 559.482 873.482C550.482 875.982 545.982 876.482 550.982 882.982C555.982 889.482 559.981 888.982 561.482 889.482C562.982 889.982 571.482 881.482 566.482 889.482C561.482 897.482 563.982 897.482 557.482 897.482C552.482 903.482 554.482 903.982 555.982 905.482C557.182 906.682 561.149 915.982 562.982 920.482C564.423 923.003 568.874 927.705 576.933 931.183C579.903 932.276 582.838 933.214 585.702 934.014C586.443 934.182 587.203 934.338 587.982 934.482C603.182 937.282 614.315 937.982 617.982 937.982C611.122 938.484 599.182 937.776 585.702 934.014C582.404 933.265 579.488 932.286 576.933 931.183C566.036 927.171 554.659 921.063 544.482 911.982C511.982 882.982 514.982 881.982 514.982 868.482C514.982 857.682 514.649 808.648 514.482 785.482L515.482 720.982C515.815 713.315 519.482 695.582 531.482 685.982C546.482 673.982 549.982 669.982 586.482 667.482C615.682 665.482 666.315 664.982 687.982 664.982H690.482C692.149 666.148 696.382 669.282 699.982 672.482C704.482 676.482 712.482 683.482 714.982 681.982C717.482 680.482 720.982 675.482 722.482 672.482C723.682 670.082 725.649 666.482 726.482 664.982H746.482C753.982 664.315 772.382 659.082 785.982 643.482C802.982 623.982 805.482 608.482 806.982 601.482C808.182 595.882 808.482 579.815 808.482 572.482L808.482 517.482Z" fill="black" stroke="black"/>
<path d="M705.482 869.982L711.982 845.982L720.482 869.982L713.982 894.982L705.482 869.982Z" fill="black"/>
<circle cx="659.982" cy="659.982" r="452.5" transform="rotate(37.6917 659.982 659.982)" stroke="black" stroke-width="36"/>
<mask id="path-8-inside-1_23_174" fill="white">
<path d="M1032.29 947.651C994.517 996.544 947.48 1037.52 893.868 1068.23C840.256 1098.95 781.119 1118.8 719.834 1126.66L704.634 1008.14C750.355 1002.28 794.474 987.468 834.471 964.554C874.468 941.639 909.56 911.072 937.743 874.596L1032.29 947.651Z"/>
</mask>
<path d="M1032.29 947.651C994.517 996.544 947.48 1037.52 893.868 1068.23C840.256 1098.95 781.119 1118.8 719.834 1126.66L704.634 1008.14C750.355 1002.28 794.474 987.468 834.471 964.554C874.468 941.639 909.56 911.072 937.743 874.596L1032.29 947.651Z" stroke="black" stroke-width="72" mask="url(#path-8-inside-1_23_174)"/>
<mask id="path-9-inside-2_23_174" fill="white">
<path d="M372.313 1032.29C273.569 956 209.178 843.604 193.304 719.834L311.821 704.634C323.663 796.972 371.702 880.824 445.368 937.743L372.313 1032.29Z"/>
</mask>
<path d="M372.313 1032.29C273.569 956 209.178 843.604 193.304 719.834L311.821 704.634C323.663 796.972 371.702 880.824 445.368 937.743L372.313 1032.29Z" stroke="black" stroke-width="72" mask="url(#path-9-inside-2_23_174)"/>
<mask id="path-10-inside-3_23_174" fill="white">
<path d="M287.67 372.312C363.964 273.569 476.359 209.178 600.13 193.304L615.33 311.82C522.992 323.663 439.14 371.701 382.221 445.368L287.67 372.312Z"/>
</mask>
<path d="M287.67 372.312C363.964 273.569 476.359 209.178 600.13 193.304L615.33 311.82C522.992 323.663 439.14 371.701 382.221 445.368L287.67 372.312Z" stroke="black" stroke-width="72" mask="url(#path-10-inside-3_23_174)"/>
<mask id="path-11-inside-4_23_174" fill="white">
<path d="M947.651 287.669C1046.39 363.964 1110.79 476.359 1126.66 600.13L1008.14 615.329C996.301 522.991 948.262 439.14 874.596 382.221L947.651 287.669Z"/>
</mask>
<path d="M947.651 287.669C1046.39 363.964 1110.79 476.359 1126.66 600.13L1008.14 615.329C996.301 522.991 948.262 439.14 874.596 382.221L947.651 287.669Z" stroke="black" stroke-width="72" mask="url(#path-11-inside-4_23_174)"/>
</svg>
